<?xml version="1.0" standalone="no"?>
<!DOCTYPE svg PUBLIC "-//W3C//DTD SVG 20010904//EN"
 "http://www.w3.org/TR/2001/REC-SVG-20010904/DTD/svg10.dtd">
<svg version="1.0" xmlns="http://www.w3.org/2000/svg"
 width="512.000000pt" height="512.000000pt" viewBox="0 0 512.000000 512.000000"
 preserveAspectRatio="xMidYMid meet">

<g transform="translate(0.000000,512.000000) scale(0.100000,-0.100000)"
fill="#000000" stroke="none">
<path d="M365 4385 c91 -242 211 -411 359 -507 63 -41 127 -63 207 -74 l49 -7
0 -87 0 -87 61 -7 c34 -3 93 -6 130 -6 l69 0 0 -180 0 -180 -130 0 -130 0 0
-115 0 -115 118 0 c109 0 118 -2 130 -21 11 -18 13 -162 11 -778 -2 -416 -6
-814 -10 -886 -4 -71 -13 -227 -20 -345 -6 -118 -16 -221 -22 -228 -6 -8 -6
-12 2 -12 7 0 9 -15 4 -45 l-6 -45 217 0 216 0 -5 77 c-16 278 -27 466 -34
588 -10 180 -15 1631 -6 1668 l7 27 982 -2 981 -3 1 -775 c0 -510 -4 -850 -12
-995 -7 -121 -16 -276 -20 -345 -4 -69 -11 -131 -17 -137 -6 -9 -6 -13 2 -13
7 0 9 -15 4 -45 l-6 -45 217 0 217 0 -5 78 c-6 84 -23 376 -35 592 -13 243
-14 1650 -1 1650 7 0 9 8 5 20 -6 19 -2 20 119 20 l126 0 0 115 0 115 -130 0
-130 0 0 179 0 179 118 4 c64 2 123 7 130 11 8 6 12 36 12 91 l0 82 72 12
c190 29 352 171 477 419 36 72 91 205 91 220 0 3 -33 -26 -74 -65 -41 -39
-104 -91 -141 -115 l-66 -44 -142 5 c-88 3 -145 9 -149 16 -6 8 -8 7 -8 -1 0
-10 -94 -13 -419 -13 -391 0 -420 1 -424 18 -4 16 -5 16 -6 0 -1 -17 -17 -18
-195 -18 -177 0 -195 2 -199 18 -4 16 -5 16 -6 -1 -1 -16 -15 -17 -198 -15
l-197 3 -7 25 -7 25 -1 -27 -1 -28 -164 0 c-163 0 -165 0 -169 23 l-4 22 -2
-22 c-1 -23 -1 -23 -190 -23 -172 0 -190 2 -194 18 -4 16 -5 16 -6 0 -1 -16
-16 -18 -166 -18 -146 0 -165 2 -174 18 -10 16 -10 16 -11 0 0 -16 -14 -18
-154 -18 -139 0 -155 2 -159 18 -4 16 -5 16 -6 0 -1 -16 -13 -18 -105 -18 -91
0 -105 2 -109 18 -4 14 -5 14 -6 1 -1 -19 -61 -28 -203 -30 l-86 -2 -69 46
c-37 25 -103 78 -145 117 l-78 71 25 -66z m541 -199 c1 0 4 -14 8 -29 l7 -29
-43 7 c-50 7 -169 44 -181 55 -5 4 40 6 100 3 59 -3 108 -6 109 -7z m234 -26
l0 -30 -105 0 -105 0 0 30 0 30 105 0 105 0 0 -30z m320 5 c0 -14 5 -25 10
-25 6 0 10 11 10 25 l0 25 165 0 165 0 0 -25 c0 -14 5 -25 10 -25 6 0 10 11
10 25 l0 25 185 0 185 0 0 -30 0 -30 -520 0 -520 0 0 30 0 30 150 0 150 0 0
-25z m1080 -5 l0 -30 -165 0 -165 0 0 30 0 30 165 0 165 0 0 -30z m410 0 l0
-30 -195 0 -195 0 0 30 0 30 195 0 195 0 0 -30z m392 0 l5 -30 -189 0 -188 0
0 30 0 30 184 0 184 0 4 -30z m488 16 c0 -8 3 -21 6 -30 6 -14 -19 -16 -235
-16 l-241 0 0 30 0 30 235 0 c196 0 235 -2 235 -14z m370 -16 l0 -30 -175 0
-175 0 0 30 0 30 175 0 175 0 0 -30z m190 14 c-32 -14 -161 -46 -166 -41 -1 1
-5 14 -9 30 l-7 27 108 0 c107 -1 108 -1 74 -16z m-840 -744 l0 -180 -990 0
-990 0 0 180 0 180 990 0 990 0 0 -180z"/>
</g>
</svg>
